<svg width="1920" height="3941" viewBox="0 0 1920 3941" fill="none" xmlns="http://www.w3.org/2000/svg">
<path d="M77.0469 0V3941" stroke="black"/>
<path d="M253.637 0V3941" stroke="black"/>
<path d="M430.228 0V3941" stroke="black"/>
<path d="M606.818 0V3941" stroke="black"/>
<path d="M783.409 0V3941" stroke="black"/>
<path d="M960 0V3941" stroke="black"/>
<path d="M1136.59 0V3941" stroke="black"/>
<path d="M1313.18 0V3941" stroke="black"/>
<path d="M1489.77 0V3941" stroke="black"/>
<path d="M1666.36 0V3941" stroke="black"/>
<path d="M1842.95 0V3941" stroke="black"/>
<path d="M1920 158.148L2.24722e-05 158.147" stroke="black"/>
<path d="M1920 520.618L2.24722e-05 520.618" stroke="black"/>
<path d="M1920 883.089L2.24722e-05 883.088" stroke="black"/>
<path d="M1920 1245.56L2.24722e-05 1245.56" stroke="black"/>
<path d="M1920 1608.03L2.24722e-05 1608.03" stroke="black"/>
<path d="M1920 1970.5L2.24722e-05 1970.5" stroke="black"/>
<path d="M1920 2332.97L2.24722e-05 2332.97" stroke="black"/>
<path d="M1920 2695.44L2.24722e-05 2695.44" stroke="black"/>
<path d="M1920 3057.91L2.24722e-05 3057.91" stroke="black"/>
<path d="M1920 3420.38L2.24722e-05 3420.38" stroke="black"/>
<path d="M1920 3782.85L2.24722e-05 3782.85" stroke="black"/>
</svg>
